<svg width="25" height="25" viewBox="0 0 25 25" fill="none" xmlns="http://www.w3.org/2000/svg">
<path d="M9.52234 5.57023H18.2006V4.34986C18.2006 3.73323 17.9469 3.17272 17.5378 2.76542C17.1287 2.35812 16.5657 2.10555 15.9471 2.10555H4.38288C3.76349 2.10555 3.20048 2.35812 2.79137 2.76542C2.38225 3.17272 2.12855 3.73323 2.12855 4.34986V15.8626C2.12855 16.4785 2.38225 17.0398 2.79137 17.4463C3.20048 17.8536 3.76349 18.1062 4.38288 18.1062H5.6087V9.46648C5.6087 8.39401 6.04905 7.42013 6.75758 6.714C7.4661 6.00787 8.44508 5.57023 9.52234 5.57023ZM19.8607 5.57023H21.0865C22.1638 5.57023 23.142 6.00863 23.8513 6.714C24.5598 7.41938 25.0002 8.39401 25.0002 9.46648V20.9793C25.0002 22.0517 24.5598 23.0256 23.8513 23.7317C23.142 24.4379 22.1638 24.8755 21.0865 24.8755H9.52234C8.44508 24.8755 7.46686 24.4371 6.75758 23.7317C6.04829 23.0264 5.6087 22.0517 5.6087 20.9793V19.7589H4.38288C3.30562 19.7589 2.3274 19.3205 1.61811 18.6151C0.909589 17.9097 0.469238 16.9351 0.469238 15.8626V4.34986C0.469238 3.27739 0.909589 2.30351 1.61811 1.59738C2.3274 0.892007 3.30562 0.453613 4.38288 0.453613H15.9471C17.0243 0.453613 18.0025 0.892007 18.7118 1.59738C19.4211 2.30351 19.8607 3.27739 19.8607 4.34986V5.57023ZM21.0865 7.22293H19.031H9.52234C8.90372 7.22293 8.33995 7.4755 7.93159 7.8828C7.52248 8.2901 7.26878 8.8506 7.26878 9.46724V18.9337V20.98C7.26878 21.5959 7.52248 22.1572 7.93159 22.5644C8.34071 22.9717 8.90372 23.2243 9.52234 23.2243H21.0865C21.7059 23.2243 22.2689 22.9717 22.678 22.5644C23.0871 22.1572 23.3408 21.5966 23.3408 20.98V9.46724C23.3408 8.85136 23.0871 8.2901 22.678 7.8828C22.2689 7.4755 21.7059 7.22293 21.0865 7.22293Z" fill="#272C31"/>
</svg>
