<svg width="15" height="15" viewBox="0 0 15 15" fill="none" xmlns="http://www.w3.org/2000/svg">
<path d="M15 9.64286V13.3929C15 13.8191 14.8307 14.2279 14.5293 14.5293C14.2279 14.8307 13.8191 15 13.3929 15H1.60714C1.1809 15 0.772119 14.8307 0.470721 14.5293C0.169324 14.2279 0 13.8191 0 13.3929V9.10714C0 8.96506 0.0564411 8.8288 0.156907 8.72834C0.257373 8.62787 0.393634 8.57143 0.535714 8.57143C0.677795 8.57143 0.814056 8.62787 0.914522 8.72834C1.01499 8.8288 1.07143 8.96506 1.07143 9.10714V13.3929C1.07143 13.5349 1.12787 13.6712 1.22834 13.7717C1.3288 13.8721 1.46506 13.9286 1.60714 13.9286H13.3929C13.5349 13.9286 13.6712 13.8721 13.7717 13.7717C13.8721 13.6712 13.9286 13.5349 13.9286 13.3929V9.64286C13.9286 9.50078 13.985 9.36452 14.0855 9.26405C14.1859 9.16358 14.3222 9.10714 14.4643 9.10714C14.6064 9.10714 14.7426 9.16358 14.8431 9.26405C14.9436 9.36452 15 9.50078 15 9.64286ZM7.11964 11.6304C7.16944 11.6806 7.22869 11.7204 7.29398 11.7476C7.35926 11.7748 7.42928 11.7888 7.5 11.7888C7.57072 11.7888 7.64074 11.7748 7.70602 11.7476C7.7713 11.7204 7.83055 11.6806 7.88036 11.6304L10.5589 8.95179C10.6598 8.85091 10.7165 8.71409 10.7165 8.57143C10.7165 8.42877 10.6598 8.29195 10.5589 8.19107C10.4581 8.09019 10.3212 8.03352 10.1786 8.03352C10.0359 8.03352 9.89909 8.09019 9.79821 8.19107L8.03571 9.95893V0.535714C8.03571 0.393634 7.97927 0.257373 7.87881 0.156907C7.77834 0.0564411 7.64208 0 7.5 0C7.35792 0 7.22166 0.0564411 7.12119 0.156907C7.02073 0.257373 6.96429 0.393634 6.96429 0.535714V9.95893L5.20179 8.19107C5.15184 8.14112 5.09254 8.1015 5.02728 8.07447C4.96201 8.04744 4.89207 8.03352 4.82143 8.03352C4.75079 8.03352 4.68084 8.04744 4.61558 8.07447C4.55032 8.1015 4.49102 8.14112 4.44107 8.19107C4.39112 8.24102 4.3515 8.30032 4.32447 8.36558C4.29744 8.43084 4.28352 8.50079 4.28352 8.57143C4.28352 8.64207 4.29744 8.71201 4.32447 8.77728C4.3515 8.84254 4.39112 8.90184 4.44107 8.95179L7.11964 11.6304Z" fill="#272C31"/>
</svg>
